<svg width="30" height="28" viewBox="0 0 30 28" fill="none" xmlns="http://www.w3.org/2000/svg">
<path d="M8.40039 3.10498C5.09359 3.10498 2.40039 5.50157 2.40039 8.44418V20.1904C2.40039 23.133 5.09359 25.5296 8.40039 25.5296H21.6004C24.9072 25.5296 27.6004 23.133 27.6004 20.1904V8.44418C27.6004 5.50157 24.9072 3.10498 21.6004 3.10498H8.40039ZM8.40039 4.17282H21.6004C24.2588 4.17282 26.4004 6.07856 26.4004 8.44418V20.1904C26.4004 22.556 24.2588 24.4618 21.6004 24.4618H8.40039C5.74199 24.4618 3.60039 22.556 3.60039 20.1904V8.44418C3.60039 6.07856 5.74199 4.17282 8.40039 4.17282ZM7.80039 8.9781C6.81341 8.9781 6.00039 9.70158 6.00039 10.5799V18.0547C6.00039 18.933 6.81341 19.6565 7.80039 19.6565H22.2004C23.1874 19.6565 24.0004 18.933 24.0004 18.0547V10.5799C24.0004 9.70158 23.1874 8.9781 22.2004 8.9781H7.80039ZM8.04883 10.0459H21.9508L16.607 14.7939C15.7114 15.5896 14.2785 15.5895 13.3832 14.7928L8.04883 10.0459ZM22.8004 10.7999V17.8347L18.8418 14.3173L22.8004 10.7999ZM7.20039 10.8009L11.152 14.3173L7.20039 17.8337V10.8009ZM17.9934 15.0713L21.952 18.5887H8.04883L12.0004 15.0723L12.5348 15.5478C13.8883 16.7523 16.1 16.7531 17.4543 15.5499L17.9934 15.0713Z" fill="white"/>
</svg>
